# Blender 3.1.0
# www.blender.org
mtllib mk_missile01.mtl
o Cube
v -0.450000 0.000000 -0.050000
v -0.450000 0.000000 0.050000
v -0.500000 0.100000 -0.050000
v -0.500000 -0.100000 -0.050000
v -0.500000 0.100000 0.050000
v -0.500000 -0.100000 0.050000
v 0.162500 -0.062500 -0.050000
v -0.225000 -0.075000 -0.050000
v -0.412500 -0.187500 -0.050000
v 0.162500 0.062500 0.050000
v -0.225000 0.075000 0.050000
v -0.412500 0.187500 0.050000
v -0.412500 -0.187500 0.050000
v -0.225000 -0.075000 0.050000
v 0.162500 -0.062500 0.050000
v -0.412500 0.187500 -0.050000
v -0.225000 0.075000 -0.050000
v 0.162500 0.062500 -0.050000
v -0.362500 0.000000 -0.050000
v -0.225000 0.000000 -0.050000
v 0.162500 0.000000 -0.050000
v 0.162500 0.000000 0.050000
v -0.225000 0.000000 0.050000
v -0.362500 0.000000 0.050000
v -0.500000 -0.050000 0.000000
v 0.500000 -0.000000 0.000000
v -0.500000 0.085000 0.000000
v -0.412500 -0.137500 0.000000
v -0.225000 -0.025000 0.000000
v 0.162500 -0.012500 0.000000
v 0.162500 0.047500 0.000000
v -0.225000 0.060000 0.000000
v -0.412500 0.172500 0.000000
v -0.450000 0.000000 0.000000
vn -0.6917 0.6917 -0.2075
vn -0.0000 -0.0000 1.0000
vn -0.8775 -0.4743 -0.0711
vn 0.0262 -0.7069 -0.7069
vn 0.1465 -0.0000 -0.9892
vn -0.0000 -0.0000 -1.0000
vn -0.5774 -0.5774 -0.5774
vn 0.3906 -0.6509 -0.6509
vn 0.0228 -0.7069 -0.7069
vn 0.1465 -0.0000 0.9892
vn 0.1336 0.9492 -0.2848
vn 0.0309 0.9574 -0.2872
vn 0.4983 0.8305 -0.2491
vn -0.8018 0.5345 -0.2673
vn -0.8018 0.5345 0.2673
vn 0.4983 0.8305 0.2491
vn 0.0309 0.9574 0.2872
vn 0.1336 0.9492 0.2848
vn 0.0228 -0.7069 0.7069
vn 0.3906 -0.6509 0.6509
vn -0.5774 -0.5774 0.5773
vn 0.0262 -0.7069 0.7069
vn -0.8775 -0.4743 0.0711
vn -0.6917 0.6917 0.2075
vt 0.500000 0.250000
vt 0.500000 1.000000
vt 0.500000 0.000000
vt 0.625000 0.250000
vt 0.875000 0.500000
vt 0.375000 0.250000
vt 0.125000 0.500000
vt 0.875000 0.750000
vt 0.625000 1.000000
vt 0.625000 0.000000
vt 0.125000 0.750000
vt 0.375000 1.000000
vt 0.375000 0.000000
vt 0.375000 0.437500
vt 0.312500 0.500000
vt 0.375000 0.375000
vt 0.250000 0.500000
vt 0.375000 0.312500
vt 0.187500 0.500000
vt 0.625000 0.812500
vt 0.687500 0.750000
vt 0.625000 0.875000
vt 0.750000 0.750000
vt 0.625000 0.937500
vt 0.812500 0.750000
vt 0.187500 0.750000
vt 0.375000 0.937500
vt 0.250000 0.750000
vt 0.375000 0.875000
vt 0.312500 0.750000
vt 0.375000 0.812500
vt 0.625000 0.312500
vt 0.812500 0.500000
vt 0.625000 0.375000
vt 0.750000 0.500000
vt 0.625000 0.437500
vt 0.687500 0.500000
vt 0.500000 0.312500
vt 0.500000 0.375000
vt 0.500000 0.437500
vt 0.500000 0.812500
vt 0.500000 0.875000
vt 0.500000 0.937500
vt 0.375000 0.125000
vt 0.125000 0.625000
vt 0.375000 0.750000
vt 0.375000 0.500000
vt 0.625000 0.750000
vt 0.625000 0.625000
vt 0.625000 0.500000
vt 0.375000 0.625000
vt 0.625000 0.125000
vt 0.875000 0.625000
vt 0.187500 0.625000
vt 0.250000 0.625000
vt 0.312500 0.625000
vt 0.687500 0.625000
vt 0.750000 0.625000
vt 0.812500 0.625000
vt 0.500000 0.125000
s 0
usemtl Material
f 33/59/1 27/53/1 5/8/1 12/25/1
f 24/43/2 12/24/2 5/9/2 2/2/2
usemtl Material.004
f 34/60/3 27/52/3 3/4/3 1/1/3
usemtl Material.003
f 30/56/4 26/46/4 15/30/4
usemtl Material
f 14/29/2 23/42/2 24/43/2 13/27/2
usemtl Material.002
f 7/14/5 21/40/5 18/36/5 26/47/5
usemtl Material
f 1/1/6 3/4/6 16/32/6 19/38/6
f 19/38/6 16/32/6 17/34/6 20/39/6
usemtl Material.001
f 20/39/6 17/34/6 18/36/6 21/40/6
usemtl Material
f 25/45/7 28/54/7 13/26/7 6/11/7
usemtl Material.003
f 28/54/8 29/55/8 14/28/8 13/26/8
f 29/55/9 30/56/9 15/30/9 14/28/9
usemtl Material.002
f 26/48/10 10/20/10 22/41/10 15/31/10
usemtl Material.001
f 22/41/2 10/20/2 11/22/2 23/42/2
usemtl Material
f 23/42/2 11/22/2 12/24/2 24/43/2
usemtl Material.003
f 26/49/11 31/57/11 10/21/11
f 31/57/12 32/58/12 11/23/12 10/21/12
f 32/58/13 33/59/13 12/25/13 11/23/13
usemtl Material.001
f 15/31/2 22/41/2 23/42/2 14/29/2
f 8/16/6 20/39/6 21/40/6 7/14/6
usemtl Material
f 9/18/6 19/38/6 20/39/6 8/16/6
f 4/6/6 1/1/6 19/38/6 9/18/6
usemtl Material.004
f 25/44/14 34/60/14 1/1/14 4/6/14
usemtl Material
f 13/27/2 24/43/2 2/2/2 6/12/2
usemtl Material.004
f 6/13/15 2/3/15 34/60/15 25/44/15
usemtl Material.003
f 17/35/16 16/33/16 33/59/16 32/58/16
f 18/37/17 17/35/17 32/58/17 31/57/17
f 26/50/18 18/37/18 31/57/18
f 8/17/19 7/15/19 30/56/19 29/55/19
f 9/19/20 8/17/20 29/55/20 28/54/20
usemtl Material
f 4/7/21 9/19/21 28/54/21 25/45/21
usemtl Material.003
f 7/15/22 26/51/22 30/56/22
usemtl Material.004
f 2/3/23 5/10/23 27/52/23 34/60/23
usemtl Material
f 16/33/24 3/5/24 27/53/24 33/59/24
