# Blender 3.1.0
# www.blender.org
mtllib plants.mtl
o plants
v -0.111209 0.003242 -0.099356
v 0.456625 0.003243 0.064498
v -0.111207 0.830642 -0.099356
v 0.456623 0.830642 0.064501
v 0.254636 0.003242 -0.301346
v 0.090783 0.003243 0.266484
v 0.254636 0.830642 -0.301346
v 0.090780 0.830643 0.266486
v 0.029882 0.003243 -0.276119
v 0.315536 0.003242 0.241261
v 0.029880 0.830642 -0.276119
v 0.315536 0.830642 0.241261
v -0.085979 0.003243 0.125397
v 0.431398 0.003242 -0.160257
v -0.085983 0.830642 0.125397
v 0.431401 0.830642 -0.160257
v -0.336816 1.620235 0.552711
v -0.336818 0.002667 0.552711
v -0.008586 0.002667 -0.555089
v -0.008586 1.620234 -0.555089
v -0.726604 1.620234 -0.165306
v -0.726602 0.002667 -0.165306
v 0.381198 0.002667 0.162926
v 0.381198 1.620235 0.162926
v -0.680415 1.620234 0.274430
v -0.680415 0.002666 0.274430
v 0.335012 0.002667 -0.276810
v 0.335014 1.620234 -0.276810
v 0.102917 1.620234 0.506522
v 0.102917 0.002667 0.506525
v -0.448323 0.002668 -0.508905
v -0.448320 1.620235 -0.508905
v -0.605350 1.620233 -0.384017
v -0.605349 0.002665 -0.384020
v 0.259943 0.002666 0.381633
v 0.259943 1.620233 0.381633
v 0.210127 1.620233 -0.433839
v 0.210127 0.002665 -0.433839
v -0.555528 0.002666 0.431454
v -0.555529 1.620233 0.431454
v -0.207928 1.620233 -0.577821
v -0.207928 0.002665 -0.577821
v -0.137474 0.002667 0.575433
v -0.137475 1.620232 0.575436
v -0.749328 1.620233 0.034034
v -0.749328 0.002667 0.034032
v 0.403928 0.002666 -0.036422
v 0.403928 1.620233 -0.036420
v 0.593515 0.006411 0.200495
v 0.656750 0.006411 -0.041377
v 0.593518 0.356412 0.200495
v 0.656750 0.356412 -0.041378
v 0.504198 0.006412 0.047942
v 0.746069 0.006411 0.111173
v 0.504198 0.356413 0.047942
v 0.746069 0.356412 0.111173
v 0.517262 0.006412 0.142716
v 0.733005 0.006411 0.016402
v 0.517262 0.356411 0.142716
v 0.733005 0.356411 0.016399
v 0.688291 0.006412 0.187429
v 0.561977 0.006411 -0.028313
v 0.688293 0.356413 0.187429
v 0.561977 0.356410 -0.028313
vn -0.2773 -0.0000 0.9608
vn -0.9608 -0.0000 -0.2772
vn -0.8754 -0.0000 0.4833
vn 0.4833 -0.0000 0.8754
vn 0.9588 -0.0000 0.2841
vn -0.2841 -0.0000 0.9588
vn 0.4771 -0.0000 0.8789
vn 0.8789 -0.0000 -0.4771
vn -0.6627 -0.0000 0.7489
vn -0.7489 -0.0000 -0.6627
vn -0.9981 -0.0000 0.0610
vn 0.0610 -0.0000 0.9981
vn 0.9675 -0.0000 0.2529
vn -0.2529 -0.0000 0.9675
vn 0.5053 -0.0000 0.8630
vn 0.8630 -0.0000 -0.5053
vt 0.000000 0.000000
vt 1.000000 0.000000
vt 0.000000 1.000000
vt 1.000000 1.000000
vt 0.000000 0.000000
vt 1.000000 0.000000
vt 0.000000 1.000000
vt 1.000000 1.000000
vt 0.000000 0.000000
vt 1.000000 0.000000
vt 0.000000 1.000000
vt 1.000000 1.000000
vt 0.000000 0.000000
vt 1.000000 0.000000
vt 0.000000 1.000000
vt 1.000000 1.000000
vt 0.000000 1.000000
vt 0.000000 0.000000
vt 1.000000 0.000000
vt 1.000000 1.000000
vt 0.000000 1.000000
vt 0.000000 0.000000
vt 1.000000 0.000000
vt 1.000000 1.000000
vt 0.000000 1.000000
vt 0.000000 0.000000
vt 1.000000 0.000000
vt 1.000000 1.000000
vt 0.000000 1.000000
vt 0.000000 0.000000
vt 1.000000 0.000000
vt 1.000000 1.000000
vt 0.000000 1.000000
vt 0.000000 0.000000
vt 1.000000 0.000000
vt 1.000000 1.000000
vt 0.000000 1.000000
vt 0.000000 0.000000
vt 1.000000 0.000000
vt 1.000000 1.000000
vt 0.000000 1.000000
vt 0.000000 0.000000
vt 1.000000 0.000000
vt 1.000000 1.000000
vt 0.000000 1.000000
vt 0.000000 0.000000
vt 1.000000 0.000000
vt 1.000000 1.000000
vt 0.000000 0.000000
vt 1.000000 0.000000
vt 0.000000 1.000000
vt 1.000000 1.000000
vt 0.000000 0.000000
vt 1.000000 0.000000
vt 0.000000 1.000000
vt 1.000000 1.000000
vt 0.000000 0.000000
vt 1.000000 0.000000
vt 0.000000 1.000000
vt 1.000000 1.000000
vt 0.000000 0.000000
vt 1.000000 0.000000
vt 0.000000 1.000000
vt 1.000000 1.000000
s 1
usemtl grass
f 1/1/1 2/2/1 4/4/1 3/3/1
f 5/5/2 6/6/2 8/8/2 7/7/2
f 9/9/3 10/10/3 12/12/3 11/11/3
f 13/13/4 14/14/4 16/16/4 15/15/4
f 18/18/5 19/19/5 20/20/5 17/17/5
f 22/22/6 23/23/6 24/24/6 21/21/6
f 26/26/7 27/27/7 28/28/7 25/25/7
f 30/30/8 31/31/8 32/32/8 29/29/8
f 34/34/9 35/35/9 36/36/9 33/33/9
f 38/38/10 39/39/10 40/40/10 37/37/10
f 42/42/11 43/43/11 44/44/11 41/41/11
f 46/46/12 47/47/12 48/48/12 45/45/12
f 49/49/13 50/50/13 52/52/13 51/51/13
f 53/53/14 54/54/14 56/56/14 55/55/14
f 57/57/15 58/58/15 60/60/15 59/59/15
f 61/61/16 62/62/16 64/64/16 63/63/16
